Coordinates
version=1
nRows=26
nColumns=24
inDegrees=yes

Units are S.I. units (second, meters, Newtons, ...)
Angles are in degrees.

endheader
time	pelvis_tilt	pelvis_list	pelvis_rotation	pelvis_tx	pelvis_ty	pelvis_tz	hip_flexion_r	hip_adduction_r	hip_rotation_r	knee_angle_r	ankle_angle_r	subtalar_angle_r	mtp_angle_r	hip_flexion_l	hip_adduction_l	hip_rotation_l	knee_angle_l	ankle_angle_l	subtalar_angle_l	mtp_angle_l	lumbar_extension	lumbar_bending	lumbar_rotation
      7.78000000	      2.55074250	      3.28359213	     -1.82943324	      0.04231620	      0.70637909	      0.04013482	     22.54888922	     -2.77985163	     -2.11855058	    -65.37839519	     13.13913908	      1.68252539	      0.00000000	     -0.49492087	     10.87277214	     25.10091402	     -7.98536908	      4.78181537	    -28.59671000	      0.00000000	    -16.08008070	     -4.20602299	      0.76435374
      7.79000000	      2.83598119	      2.99693639	     -1.47417804	      0.05139346	      0.70712257	      0.04045301	     23.41844781	     -2.43258627	     -2.34555227	    -63.41313132	     14.06778831	      0.72064750	      0.00000000	     -2.10075744	     10.39230960	     26.46825923	     -7.18935738	      4.10046607	    -30.33502176	      0.00000000	    -16.76780987	     -3.90566164	      0.07126734
      7.80000000	      2.64957293	      2.77367615	     -1.24516097	      0.06033562	      0.70713415	      0.04103651	     24.75348478	     -2.02652892	     -2.32000616	    -61.18697580	     14.61315246	     -0.36853223	      0.00000000	     -2.94903217	     10.01145199	     26.85925226	     -6.76445130	      4.47361683	    -30.57808599	      0.00000000	    -16.86829026	     -3.69494356	     -0.44808963
      7.81000000	      2.67719890	      2.57503214	     -0.83011597	      0.06928076	      0.70729579	      0.04143228	     25.62709209	     -1.76907470	     -2.51438918	    -58.54934636	     15.00232699	     -1.39794022	      0.00000000	     -4.05564536	      9.62964258	     27.56902681	     -6.30579263	      4.63718250	    -31.04765858	      0.00000000	    -17.25707763	     -3.48125529	     -1.16071853
      7.82000000	      2.54961212	      2.37628632	     -0.57772499	      0.07826494	      0.70712598	      0.04204349	     26.51295133	     -1.39194848	     -2.37151229	    -55.57261019	     15.24867216	     -2.09408679	      0.00000000	     -4.93608263	      9.26146105	     28.02220995	     -5.93925598	      4.98447858	    -31.37194018	      0.00000000	    -17.42520943	     -3.29938696	     -1.72762832
      7.83000000	      2.87798409	      2.20691199	     -0.16227602	      0.08720594	      0.70740427	      0.04252635	     26.64548908	     -1.15661049	     -2.43787067	    -52.16273099	     15.37247364	     -2.82752092	      0.00000000	     -6.36750762	      8.86678193	     28.82299527	     -5.47058092	      5.00402968	    -32.00101087	      0.00000000	    -18.22212762	     -3.12921749	     -2.52867413
      7.84000000	      2.89733407	      2.08247223	      0.15563741	      0.09630101	      0.70714785	      0.04308062	     26.93703573	     -0.91580458	     -2.31405682	    -48.43736208	     15.38584707	     -3.40323108	      0.00000000	     -7.40969851	      8.54891291	     29.32796949	     -5.10319406	      5.21989255	    -32.41770806	      0.00000000	    -18.55773880	     -3.00026248	     -3.15895775
      7.85000000	      2.84239354	      2.01188951	      0.49944288	      0.10557247	      0.70665557	      0.04357324	     27.08716460	     -0.77170296	     -2.21358714	    -44.38165493	     15.37785596	     -3.81342238	      0.00000000	     -8.36019727	      8.29201310	     29.74457424	     -4.78038312	      5.55275912	    -32.63854037	      0.00000000	    -18.74182592	     -2.92184616	     -3.75204031
      7.86000000	      3.18070133	      1.95571666	      0.88308394	      0.11476502	      0.70653058	      0.04402858	     26.55177458	     -0.64138709	     -2.01161566	    -39.94739579	     15.28331503	     -4.08899050	      0.00000000	     -9.70776069	      8.03925861	     30.19310637	     -4.51613133	      5.80163339	    -32.89264604	      0.00000000	    -19.50274501	     -2.81017972	     -4.50110901
      7.87000000	      3.03120114	      1.99966579	      1.25536227	      0.12428857	      0.70564115	      0.04441637	     26.37325238	     -0.64047074	     -1.75072877	    -35.33242819	     15.10647238	     -4.24683036	      0.00000000	    -10.49458096	      7.93433031	     30.52553983	     -4.36472846	      6.18682806	    -32.99277972	      0.00000000	    -19.51855930	     -2.79637291	     -5.11577221
      7.88000000	      3.53503264	      2.05609335	      1.62579764	      0.13390096	      0.70541320	      0.04490503	     25.22994257	     -0.64647476	     -1.48070208	    -30.42279373	     14.88272490	     -4.35121463	      0.00000000	    -12.02823929	      7.78522241	     30.77233942	     -4.16224770	      6.53287961	    -32.93603845	      0.00000000	    -20.39022707	     -2.80701490	     -5.81635634
      7.89000000	      3.44522321	      2.32781796	      2.06741169	      0.14364547	      0.70428354	      0.04522595	     24.65750589	     -0.92713502	     -1.08695587	    -25.57344810	     14.53468645	     -4.47280544	      0.00000000	    -12.81129844	      7.92934606	     31.17902186	     -4.23454752	      6.95273896	    -32.83919299	      0.00000000	    -20.47956331	     -3.03840186	     -6.57963972
      7.90000000	      3.87723136	      2.50063175	      2.40084868	      0.15381887	      0.70366843	      0.04569641	     23.31378253	     -1.07305786	     -0.68875114	    -20.61457958	     14.09147468	     -4.57342563	      0.00000000	    -14.23163758	      7.92886673	     31.22137428	     -4.22160595	      7.50372414	    -32.41544935	      0.00000000	    -21.11252227	     -3.13912191	     -7.21078458
      7.91000000	      4.06922958	      2.83810613	      2.79072799	      0.16404938	      0.70264080	      0.04608262	     22.21971365	     -1.43939746	     -0.24365888	    -15.92054044	     13.59975529	     -4.65065574	      0.00000000	    -15.29518610	      8.13565392	     31.36443685	     -4.45120805	      8.10480647	    -31.85000617	      0.00000000	    -21.48523006	     -3.42924185	     -7.90606388
      7.92000000	      4.28273273	      3.24044012	      3.15633894	      0.17448359	      0.70156171	      0.04648437	     21.08819998	     -1.88589408	      0.11924765	    -11.54930570	     13.10070906	     -4.70566907	      0.00000000	    -16.33077329	      8.42747518	     31.40413960	     -4.84134791	      8.80512442	    -31.00951590	      0.00000000	    -21.85255274	     -3.79132859	     -8.59161060
      7.93000000	      4.49170275	      3.67852416	      3.48933389	      0.18511386	      0.70045143	      0.04690341	     19.99071971	     -2.36721281	      0.33039415	     -7.63942352	     12.67627179	     -4.65836913	      0.00000000	    -17.29906105	      8.77845572	     31.28387281	     -5.39757952	      9.62354705	    -29.84913408	      0.00000000	    -22.18009109	     -4.18549540	     -9.25476832
      7.94000000	      4.73662186	      4.13604355	      3.64613262	      0.19586896	      0.69937544	      0.04758343	     18.96522352	     -2.78956728	      0.54054445	     -4.33427166	     12.41192936	     -4.48406437	      0.00000000	    -18.17095143	      9.22694380	     30.54568284	     -6.22034079	     10.80751582	    -27.89297427	      0.00000000	    -22.54457954	     -4.66396656	     -9.72429527
      7.95000000	      4.83357795	      4.47520839	      4.00716023	      0.20692389	      0.69830900	      0.04808777	     18.11082134	     -3.12240781	      0.30083103	     -1.59759115	     12.28676983	     -4.20627368	      0.00000000	    -18.85689415	      9.47552495	     30.19478093	     -7.12935405	     11.75903067	    -26.16832169	      0.00000000	    -22.67003100	     -4.95230086	    -10.42757479
      7.96000000	      5.06493621	      4.77377299	      4.17468052	      0.21803204	      0.69744649	      0.04885711	     17.24111622	     -3.31009353	      0.29152032	      0.46728813	     12.31697706	     -4.00355678	      0.00000000	    -19.48704901	      9.76605090	     28.96611954	     -8.36396986	     13.09699026	    -23.54727075	      0.00000000	    -22.97248918	     -5.23062032	    -10.88387413
      7.97000000	      5.15969581	      4.98839273	      4.32301191	      0.22936085	      0.69657788	      0.04981333	     16.60595451	     -3.35792021	      0.33760415	      1.89457184	     12.34408316	     -4.04396754	      0.00000000	    -19.88157824	      9.94823854	     27.58371765	     -9.72885960	     14.31395111	    -20.75768337	      0.00000000	    -23.05962414	     -5.47954328	    -11.29321297
      7.98000000	      5.32283961	      5.09397517	      4.44090549	      0.24087025	      0.69592028	      0.05092337	     15.96522734	     -3.23887052	      0.49475263	      2.73951967	     12.32793444	     -4.38067165	      0.00000000	    -20.30777173	      9.96748790	     26.25372386	    -11.14006407	     15.23521409	    -18.07471899	      0.00000000	    -23.19495179	     -5.63634062	    -11.59251538
      7.99000000	      5.43800837	      5.04660833	      4.45175768	      0.25259305	      0.69528573	      0.05216263	     15.46770594	     -2.91838125	      0.91085948	      3.02166647	     12.19234997	     -4.98728275	      0.00000000	    -20.58980862	      9.85071513	     24.63839672	    -12.66135824	     15.99277734	    -15.42946514	      0.00000000	    -23.20304652	     -5.63844902	    -11.78821792
      8.00000000	      5.55056892	      4.80137950	      4.45754527	      0.26452396	      0.69476158	      0.05343826	     15.05899381	     -2.36123775	      1.36403960	      2.78398441	     11.87858756	     -5.91450645	      0.00000000	    -20.82970089	      9.50122288	     23.09482897	    -14.22066170	     16.46391154	    -13.04615107	      0.00000000	    -23.13963867	     -5.40766340	    -11.85079522
      8.01000000	      5.61199092	      4.46253191	      4.40892851	      0.27644751	      0.69429179	      0.05484319	     14.82104798	     -1.68054327	      1.99370689	      2.07629152	     11.27362300	     -7.13933020	      0.00000000	    -20.94070862	      9.05311773	     21.58663726	    -15.86934573	     16.67096251	    -10.75799566	      0.00000000	    -23.01257475	     -5.10750409	    -11.84639104
      8.02000000	      5.69295411	      3.91830826	      4.30030981	      0.28855893	      0.69394035	      0.05630979	     14.64290260	     -0.75618210	      2.67122392	      1.00067134	     10.45876570	     -8.52150223	      0.00000000	    -21.03570535	      8.39112784	     20.04644671	    -17.54536868	     16.60688535	     -8.67189288	      0.00000000	    -22.81747829	     -4.57663964	    -11.69153919
      8.03000000	      5.77366110	      3.21557150	      4.14530476	      0.30068585	      0.69372777	      0.05785376	     14.56725730	      0.35637205	      3.31887430	     -0.40705175	      9.44113333	     -9.94036139	      0.00000000	    -21.00512173	      7.56715038	     18.37712577	    -19.37781865	     16.32614332	     -6.60154796	      0.00000000	    -22.59063706	     -3.87658413	    -11.40042460
